<?xml version="1.0" encoding="UTF-8"?>
<svg version="1.1" viewBox="0 0 1024 1024" width="1280" height="1280" xmlns="http://www.w3.org/2000/svg">
<path transform="translate(0)" d="m0 0h1024v1024h-1024z" fill="#FCFCFC"/>
<path transform="translate(490,201)" d="m0 0h42l28 3 29 6 20 6 22 8 25 12 20 11 22 15 16 13 20 18 7 7 7 8 13 16 14 20 12 20 9 17 8 19 9 27 6 24 4 25 1 12v44l-3 26-5 25-7 24-8 21-9 20-13 23-12 18-12 16-11 13-11 12-10 10-8 7-18 14-12 8-14 9-12 7-23 11-20 8-29 9-29 6-27 3h-38l-30-3-25-5-26-8-21-8-25-12-20-11-15-10-15-11-11-9-10-9-17-17-9-11-11-14-11-16-9-15-7-12-11-24-7-18-7-23-5-24-3-22-1-16v-25l2-25 4-26 8-30 11-29 8-17 10-17 10-16 14-19 13-15 12-13 9-9 8-7 12-10 10-7 18-12 22-12 21-10 27-10 26-7 21-4z" fill="#00093B"/>
<path transform="translate(504,394)" d="m0 0h14l15 2 11 2 1 8 4 3h6l5-3 8 7 3 1 2 9 2 2h9l6 9 5 5 3 9 1 1 191 1 2 5 4 26 1 10v33l-3 28-2 9h-204l-2 5-10 13-10 10-7 5-1 5h2l5 6 12-7 14-13 7-9 190 1-2 11-6 18-9 21-11 21-5 7-5-1-3-2 2-4 9-12 5-12 3-16 2-16h-15l-15 3-12 5-10 6-4 2-2 4-3 4h-2v2l-5-2-7-5-12-4h-18l-12 4-10 6-8 7-7 11-4 9-15 1-13 4-10 6-5 5-5 7-1 3v7l6 5 4-1 7-9h2l1-3 9-5 8-2h12l2 7 1 8-18 2-13 4-9 5-9 7h-17l-4-11-3-2-8 1v8l3 9-15 8-11 9-9 12-5-5-9-10-10-8-11-6v-6l1-2v-7l-4-3-5 1-3 4-2 7-19 1-10-8-13-6-14-3-11-1-1-3 3-12h11l12 3 9 6 8 10h6l4-3v-7l-4-8-7-8-9-6-13-4-16-1-9-17-9-9-14-8-8-3h-19l-10 3-10 6-5 2-7-9-10-7-12-6-11-3-7-1h-16l4 26 5 15 6 10 6 8-7 4-3-3-10-18-9-20-7-18-5-19 3-1h123l66 1 12 14 11 9 8 5 3 1 2-5 2-3 1-5-5-2-15-14-9-12-2-3-204-1-4-28v-47l3-23 3-13 192-1 6-12 9-11 7-1 3-4 2-7 10-6 2-1 4 2h7l3-3 2-7 18-4z" fill="#FAFCFC"/>
<path transform="translate(492,228)" d="m0 0h40l20 2 24 5 22 6 22 8 27 13 20 12 10 7 12 9 14 12 22 22 9 11 10 13 12 18 10 18 9 19 6 15 4 14v3l-184 1-4 2-2 2-5-5-7-9h-8l-4-5v-7l-4-1-8-6-4 3h-6l-5-4-1-7-15-3-10-1h-14l-18 3-8 1-1 7-4 4h-7l-5-2-9 6h-2l-2 9-3 3-7 1-10 13-2 2-2-4-4-2-184-1 1-8 9-24 8-16 10-19 13-19 10-13 9-11 12-13 8-8 8-7 16-13 13-9 20-12 16-8 16-7 22-8 28-7 25-4z" fill="#FE6407"/>
<path transform="translate(507,412)" d="m0 0h10l11 4 8 8 4 11v9l-3 9-9 10-7 4h-3v42h7l14 5 9 7 6 9 1 9-4 9-7 7-10 5-9 2 3 3 5 4 5 9 1 10-3 9-6 7-6 4h-2l4 8 1 8-2 8-6 6-1 35 6-4 5-4 1-2 1-18 7-9 2-9v-12l-1-7 5-5 10-2 4-5v3h2l5 6 12-7 14-13 7-9 190 1-2 11-6 18-9 21-11 21-5 7-5-1-3-2 2-4 9-12 5-12 3-16 2-16h-15l-15 3-12 5-10 6-4 2-2 4-3 4h-2v2l-5-2-7-5-12-4h-18l-12 4-10 6-8 7-7 11-4 9-15 1-13 4-10 6-5 5-5 7-1 3v7l6 5 4-1 7-9h2l1-3 9-5 8-2h12l2 7 1 8-18 2-13 4-9 5-9 7h-17l-4-11-3-2-8 1v8l3 9-15 8-11 9-9 12-5-5-9-10-10-8-11-6v-6l1-2v-7l-4-3-5 1-3 4-2 7-19 1-10-8-13-6-14-3-11-1-1-3 3-12h11l12 3 9 6 8 10h6l4-3v-7l-4-8-7-8-9-6-13-4-16-1-9-17-9-9-14-8-8-3h-19l-10 3-10 6-5 2-7-9-10-7-12-6-11-3-7-1h-16l4 26 5 15 6 10 6 8-7 4-3-3-10-18-9-20-7-18-5-19 3-1h123l66 1 12 14 11 9 8 5 3 1 2-5 3-6 5 5 4 2 5 1 5 4v21l5 12 4 5 1 18 8 8 4 2 1-17-1-18-6-7-1-2v-12l4-6v-2l-8-5-6-7-3-8v-8l4-10 8-7h2l-1-2-12-4-8-5-7-8-2-5v-8l3-7 4-5 9-6 13-4 8-1v-42l-5-1-9-6-6-8-2-6v-12l4-10 5-6 10-5z" fill="#01F8E9"/>
<path transform="translate(507,412)" d="m0 0h10l11 4 8 8 4 11v9l-3 9-9 10-7 4h-3v42h7l14 5 9 7 6 9 1 9-4 9-7 7-10 5-9 2 3 3 5 4 5 9 1 10-3 9-6 7-6 4h-2l4 8 1 8-2 8-6 6-1 44-7 1-4-1-1-3v-23l-1-18-6-7-1-2v-12l4-6v-2l-8-5-6-7-3-8v-8l4-10 8-7h2l-1-2-12-4-8-5-7-8-2-5v-8l3-7 4-5 9-6 13-4 8-1v-42l-5-1-9-6-6-8-2-6v-12l4-10 5-6 10-5z" fill="#00093B"/>
<path transform="translate(490,201)" d="m0 0h42l28 3 29 6 20 6 22 8 25 12 20 11 22 15 16 13 20 18 7 7 7 8 13 16 14 20 12 20 9 17 8 19 9 27 6 24 4 25 1 12v44l-3 26-5 25-7 24-8 21-9 20-13 23-12 18-12 16-11 13-11 12-10 10-8 7-18 14-12 8-14 9-12 7-23 11-20 8-29 9-29 6-27 3h-38l-30-3-25-5-26-8-21-8-25-12-14-8 4-2v2l6-1 2 3h-2v2l6 2 6 3 6 1 3 2v2l10 2 3 2-1 2 15 3 2 2 9 1 6 2 2 3 11 3h6l2 2 17 2 2 1 14 1h68l8-2 3-2h10l2 1 1-2 6-1v-1l11-2 2 1v-2l11-2v-3h5l4-1v-3l12-1 1-3 8-3h5l5-4h4l2-3 8-2v-2l10-6 5-2 4-4-2-4 7-1 4 1 3-2 8-6 3-1 4-4h3l1-4 4-3 2-1 2-5 5-2 1-6 10-6v-3l2-2 5-3 5-7h2l1-2 4-4h2l1-3 4-6h2l1-6h-3l-2 3h-3l1-7 6-4 4-5h5 3l1-4 4-2 1-5 3-6 2-1v3l4-9 5-12 3-5 1-6h3l2-7h2l1-5-1-4 1-3 1-2h2l1-5 3-6 1-5-1-4v-2l1-2 2 1 2-9 4-20v-8l1-5 1-3v-56l-2-6-1-18-4-18-3-4 1-4h-2l-2-10-1-7-3-6v-2l-3-1-1-5 1-3-3-5v-3l-4-1-1-6-3-6v-3h-2l-2-9-5-3v-5h-2l-2-7-7-1v-2l2-1v-4l-3-3-2-4-4-2v-2l-7 2-6 1v3l-4-1 2-11-1-3h-3v-4h-8v-7h3l1 3 4 1 2-4-4-6-4 2-1 2-1-7h-6l-1-4 3-2 1-3-3 1v-2h-2v-2h-2l-2 4-5-1-8-7-2-2-5-2-1-3-14-3-1-6-5-1v-2l2-1h7l4 4 1 3 6-1v-4h-6v-3l-4-4-6-3h-5l-1 6h-4l-1-3 2-3h2l-1-4-7 1v2l-5-2-4-4v-2l-6-1-2-10h-10l-4-2-1 4-4 2-4 1-5 3-4-2-1-3 8-1-1-3-5-2v-10l-5-1-3-2v-2h-5v-2l-8 1-3-2v-2l-9-1-4-1h-9l-5-5-2-1-28-2-3-2h-12l-8-1-38 1-5 1h-11l-1-2 13-2z" fill="#00082C"/>
<path transform="translate(352,618)" d="m0 0h5l6 7 3 13 3-2 6-2v-3l-6-1-1-3h12l-1 5 2 1-2 4 3 4h2v14l-8 4v2l5 3 2 5v10l-5 3-1 2h7l-1 4h-5l-1-1h-6l-6 4-5 6-3 1h-9l-4-2-4-4-2 5-3-3-10-1-5-3-4-2v-8l3-7v-2l-6-3-2-9-1-3-3-1-1-7 4-5 3-2h3l1-7 4-1 2-4h2v-2l3-2 2-2h5l-1 3-1 2 7 4v-6l4-6z" fill="#00082C"/>
<path transform="translate(656,617)" d="m0 0 7 1 4 1 7 2 5 3 2 4v3l5-3h7l2-6h5v10l2 4v6l-2 5 6 5 3 2 1 8-1 2h-2l-1 8-5 2v14l-3 5-8 3-3-1-3-2-5 1-4 4-4 1-9-2-5-5-5 1-2-1v-2h2v-4l-12 1v-3h2l-1-3-5-3-2-11 2-3 6-2-2-1-1-5-4-4v-8l2-3h2v-2l3-2 1-3h8l3 3v2l4 1-3-6v-2l-3-1v-4h6l-1-7z" fill="#00082C"/>
<path transform="translate(488,224)" d="m0 0h8l4 1 20-1h16l-1 3h14l8 2 12 2 25 6 9 3 5 1 3-2h6l2 1v2l-6 2 10 4 10 3 2 1v-2h3l-1 5 9 1 2 2v3l5 1v-2l7-1 1 2-5 1v4l5 1 5 4 9 6v-2l4 1v4l6 4 1-2h2l1 5 3 2 5 5v2l5 2v2h2l1-3 3 2 2 7 5 4 6 7v2l3 1v2l4 2v2l2-1 1-3 3 1v3h-2v5l4 1 2 4 3 1v4h2l2 5 4 1 1 8h2l4 6 4 7 2 1v-6l-2-5 3 1 4 8-2 4h-3l3 6 2 1v5l4 1 5 13 2 8 4 9 3 7 3 3 2 6-1 6-2 3h-115l-69-1-8 4 2-5 4-2h184l-5-17-7-18-8-16-11-20-14-20-11-14-14-15-15-15-11-9-13-10-11-7-15-9-23-12-20-8-19-6-25-6-19-3-12-1h-40l-26 3-24 5-24 7-25 10-16 8-16 9-11 7-16 12-13 11-13 12-7 7-9 11-12 15-16 24-12 22-11 26-5 17h184l5 3 1 6-3 6h-191v-1l8-1 1-1 55-1h80l38 1 7 2v-3l2-1-1-7h-5v1l-16 1h-65l-80-1-20-1-4-4 2-3 3-12 8-19h-2v-5l4-1 1-3h2l2-5 7-14 3-5 1-4 3-1 1-7-1-3 3 1v2h2l2-5 4-5 1-5 5-2 3-5 9-11h2l1-6 5-2 2-6 5-1 1-3h2l-1-6 4-2 5 1 4-4 6-4 1-2h3v-2l11-8h2l-2-5 6 1 1-4 6-1 1-2 9-3h2l1-3 5-2 6-3 1-2 9-3 2-4 1-4 5-1 4 2h3l12-3 6-4 5-2 1-2 15 1 10-3 19-3 12-1z" fill="#00082C"/>
<path transform="translate(389,469)" d="m0 0h76l10 4 7 6 3 6 1 9-4 10-8 7-7 3-5 1h-11l-12-3-16-8-13-9-16-16-5-7z" fill="#00093B"/>
<path transform="translate(558,469)" d="m0 0h76l-1 4-11 13-9 9-10 7-10 6-13 5-7 2h-13l-10-3-10-9-3-9 1-9 6-9 5-4z" fill="#00093B"/>
<path transform="translate(304,697)" d="m0 0 11 3 22 9 18 4 11 4 8 6 8 9 4 10 4 16 3 10-10-4-17-9-20-13-12-9-11-9v-2l-4-2-3-4 2-6-4-2-2-4-4-2-4-4z" fill="#02F5E8"/>
<path transform="translate(714,697)" d="m0 0h3l-2 4-5 5-7 6 2 1-1 5-5 5-9 8-17 13-10 7-15 9-17 8h-2l1-5 4-12 4-15 6-9 8-7 12-6 22-5 19-9z" fill="#02F6E8"/>
<path transform="translate(710,347)" d="m0 0 8 1 5 4 2 8-2 7-5 5-20 8-5 4-16 6-26 12-8 4-6-1-2-3 1-7 19-10 15-8 7-3 12-6 4-11 10-6 4-3z" fill="#FDFDFD"/>
<path transform="translate(679,310)" d="m0 0 6 1 6 5 1 2v9l-4 7-7 5-10 4-5 4-8 5h-2v2l-15 10-14 11-8 6-6-1-2-3 1-6 9-8 11-9 12-10 11-9 3-5 3-6 5-4h2l2-4 4-4z" fill="#FDFDFD"/>
<path transform="translate(339,310)" d="m0 0 7 1 6 5 3 5 7 5 5 9 9 8 8 6v2l4 2 13 11 8 7 1 6-2 3h-8l-10-9-17-12-11-8-8-5-7-5-12-6-5-6-1-3v-7l3-5 4-3z" fill="#FDFDFD"/>
<path transform="translate(506,247)" d="m0 0h9l6 4 2 4v9l-2 8-3 48-1 23-4 4h-5l-2-2-1-4-2-46-1-7v-10l-3-14v-10l5-6z" fill="#FDFDFD"/>
<path transform="translate(305,347)" d="m0 0h7l9 6 8 6 5 10 32 16 19 10 1 6-3 4h-6l-8-4-27-12-17-7-5-4-18-7-4-5-1-2v-10l5-6z" fill="#FDFDFD"/>
<path transform="translate(444,256)" d="m0 0h11l7 8 1 8v15l7 28 8 27-1 7-3 2-6-1-3-7-8-24-10-24-4-13-5-10v-10l4-5z" fill="#FDFDFD"/>
<path transform="translate(567,256)" d="m0 0h11l6 7v8l-7 15-4 13-5 10-13 39-3 3-5-1-3-4 1-8 7-24 4-18 3-11v-17l2-7z" fill="#FDFDFD"/>
<path transform="translate(390,277)" d="m0 0 9 2 5 6 9 21v3l3 1 4 10 8 11 11 17 1 5-5 5-5-2-16-22-10-14-5-3-6-9-1-3-5-2-6-8-1-2v-8l6-7z" fill="#FDFDFD"/>
<path transform="translate(627,277)" d="m0 0 8 1 5 5 2 6-3 9-13 12-4 8-5 3-9 13-9 12-8 11-5 1-4-3v-6l17-25 5-8 2-5h2l3-11 7-16 4-5z" fill="#FDFDFD"/>
<path transform="translate(520,604)" d="m0 0 5 2-1 2h-2l4 8 1 8-2 8-6 6-1 44-7 1-4-1-1-3v-23l-1-18-6-7-1-2v-12l4-6 2 3 1 6h2l2-4 8 2 3-1-2-10z" fill="#000A3C"/>
<path transform="translate(402,732)" d="m0 0 8 1 9 4 8 6 8 9 5 10 4 16 1 7-6-1-10-6-10-9-5-5-6-8-4-10z" fill="#02F7E9"/>
<path transform="translate(615,732)" d="m0 0h4v8l-3 12-6 10-13 13-5 2v2l-12 6h-3l4-20 5-12 7-9 10-7z" fill="#02F7E9"/>
<path transform="translate(318,710)" d="m0 0 8 6 4 1h8l9 9 14 9 3 3v4l10 3 12 4 1-2 3 11 3 10-10-4-17-9-20-13-12-9-11-9v-2l-4-2-3-4z" fill="#0DC8CD"/>
<path transform="translate(701,712)" d="m0 0 4 1-1 5-5 5-9 8-17 13-10 7-15 9-17 8h-2l1-5 4-12 1-5 1 4 16-6h4l2-7 14-9 6-4 5-6h2v-2h9l6-2z" fill="#0EC8CD"/>
<path transform="translate(560,714)" d="m0 0h3v7l-4 13-6 10-5 3-16 6-9 6-3 3h-2l3-14 6-12 9-10 9-6z" fill="#F1FAFA"/>
<path transform="translate(458,714)" d="m0 0 8 1 10 4 11 8 8 8 7 14 2 8v5l-8-6-8-5-16-6-8-9-5-13z" fill="#F2FAFA"/>
<path transform="translate(207,434)" d="m0 0 1 4-3 16-3 18-1 7v37l1 4v7l-1 1v8l1 6 1 17h1l1 10v5h2l2 13 2 9h2l-1 4 2 1 3 9 2 4v3h2v5l2 3 2 7 4 1 2 8v5h2l2 2 2 4 1 5 4 7 2 1 1 5 3 2 2 5 7 9 4 2 1 2-1 3 3-1h3l2-4h3l1 6-3 10 4 5 6 5 3 5v2l4 2v4l-7-6-13-15-14-19-11-17-11-19-11-24-7-18-7-23-5-24-3-22-1-16v-25l2-25 4-26z" fill="#00082D"/>
<path transform="translate(561,761)" d="m0 0h2l-1 10-4 10-6 7-9 4-12 2h-11l1-7 7-11 9-7 10-5z" fill="#F2FAFA"/>
<path transform="translate(459,761)" d="m0 0 10 1 11 4 11 7 7 8 5 11v2h-11l-15-3-9-6-5-6-3-9z" fill="#F1FAFA"/>
<path transform="translate(347,623)" d="m0 0h9l4 2 2 3v11l-4 8-5-1-2-4v-4h-2v6l-1 2-8 2-2 4h-4l-10-6-2-4v-6l4-5 6-1 9 5 1-6z" fill="#FD6407"/>
<path transform="translate(664,623)" d="m0 0h9l5 5 3 6 7-4 6 1 5 5v6l-3 5-9 5-4-1-5-4-5-2-1-7h-2v6l-2 2-5-1-4-5-1-10 4-6z" fill="#FE6407"/>
<path transform="translate(612,696)" d="m0 0h12l-1 6-7 12-7 3-14 5-11 7-4 4h-2l3-12 6-10 4-5 9-6 7-3z" fill="#EFF9FA"/>
<path transform="translate(397,696)" d="m0 0h13l11 4 9 6 7 8 5 10 2 9-4-2v-2l-4-2-12-7-17-5-6-9z" fill="#EDF9F9"/>
<path transform="translate(683,667)" d="m0 0 5 2 10 7 1 7-4 5-7 1-8-3-4 6-4 3h-8l-5-6v-9l5-8 6 1 1 6 3-6 6-2z" fill="#FD6407"/>
<path transform="translate(335,668)" d="m0 0 4 1 1 2 8 2 2 7 2-7 4-1 6 8v9l-3 5-2 1h-8l-6-5-2-3-5 1-8 1-6-5v-6l4-5z" fill="#FD6407"/>
<path transform="translate(230,449)" d="m0 0 1 4-4 24-1 9v47l3 23v5h204l6 8v2h-2l-3-4v-2l-24-1h-178l-4-2-2-10v-8h-2v-10l-1-6v-31l1-23 1-7h2l-1-3 2-9-1-2 1-2h2z" fill="#00082C"/>
<path transform="translate(644,639)" d="m0 0h8l5 3 6 5-4 7v9l3 6-1 5-4 4-5 2h-8l-4-5v-7l5-5 8-4-9-3-5-6 1-7z" fill="#FD6407"/>
<path transform="translate(369,639)" d="m0 0h7l5 5v8l-3 4-7 2h-4v2l6 2 6 4 2 3-1 8-4 3h-8l-8-5v-2h-2l1-4 3-5v-9l-4-8 9-7z" fill="#FE6407"/>
<path transform="translate(506,426)" d="m0 0h11l8 7 1 3v8l-3 5-5 4-3 1h-7l-6-4-4-6v-8l3-6z" fill="#02F4E7"/>
<path transform="translate(596,443)" d="m0 0 2 4 6-1 2 2h18l17-1h14l1 1h16l47-1h66l6 2 3 5 3 19 1 7 1 2v46l-4 26-2 4 1-14 2-20v-33l-4-31-2-9-191-1-3-4z" fill="#00082C"/>
<path transform="translate(507,412)" d="m0 0h10l11 4 8 8 4 11v9l-3 9-9 10-7 4h-3v42h7l14 5 9 7 6 9 1 9-4 9h-3l2-4 1-8-1-5-3-5-4-4-4-2-3-3-8-2-7-1-4-4-2-40 2-6 1-2h6l4-2 5-6 1-2-2-1 1-3 3-1 1-13-1-3h-2l1-4h-2l-3-3v-2l-3-1v-2h-9l-3-3-3-1-11 2-2 3-4 1-3-2 8-5z" fill="#00082C"/>
<path transform="translate(306,495)" d="m0 0h9l5 3 3 3 1 3v8l-4 6-7 3-9-1-6-7-1-6 2-7 5-4z" fill="#00093B"/>
<path transform="translate(706,495)" d="m0 0h8l7 4 3 7-1 7-4 5-7 3-8-1-5-4-2-4v-8l3-5 3-3z" fill="#00093B"/>
<path transform="translate(504,521)" d="m0 0h2l1 7v23l-10-2-9-4-6-5v-8l5-5 8-4z" fill="#EEF9FA"/>
<path transform="translate(518,521)" d="m0 0 10 2 10 5 4 4v8l-4 5-8 4-12 3z" fill="#F4FBFB"/>
<path transform="translate(588,561)" d="m0 0h204v3h-203l-3 6-4 2 2-5z" fill="#00082C"/>
<path transform="translate(746,610)" d="m0 0 2 1-3 14-5 8-7 6-10 4-4 1-1-1 1-10 4-8 5-6 10-6z" fill="#EFF9FA"/>
<path transform="translate(274,610)" d="m0 0 13 4 11 10 4 8 1 4v7l-10-2-8-5-7-8-3-7z" fill="#F1FAFA"/>
<path transform="translate(457,205)" d="m0 0h7v1l-8 2h-8l-1 3-14 1v2l-8 2-6 3-12 3-5 2-7 3-9 3-8 4-5 3-5 1-1 2h-3l1 4-6 2h-6l-1 2-4 1-10 7h-2l-2 4-2 2-4 3h-2l-1 3-7 2-5 3-2-1 10-8 14-10 13-8 18-10 23-11 27-10 26-7z" fill="#00082D"/>
<path transform="translate(520,604)" d="m0 0 5 2-1 2h-2l4 8 1 8-2 8-3 2v-5l2-2h-2l-3-3h-3l-1-4h-5l-2 4-3 3-1-1-1 5 4 2 3 3v2l3-1v2l-4 1v16l1 3-2 12-2-2v-13l-1-18-6-7-1-2v-12l4-6 2 3 1 6h2l2-4 8 2 3-1-2-10z" fill="#00082E"/>
<path transform="translate(456,715)" d="m0 0h2l5 17 6 9 5 4 14 5 11 7 5 6-1 3h-2l-6-6-5-2-1-3-9-3v2l-3 1-10-3-3-3-3-9-3-4v-3h2v-2h-2l-1-4 1-3h-2l-1-8z" fill="#00082C"/>
<path transform="translate(744,606)" d="m0 0 3 1 1 3-16 7-6 5-5 9-2 7v5l10-3 8-5 5-6 4-11 1-3 2 1-2 10v3l-2 6-4 3v2l-10 2-3 5h-7l-2 5-6-4-1-3 3-12 2-3h2l1-6h3l2-5 4-2 2-6h11z" fill="#00082D"/>
<path transform="translate(389,469)" d="m0 0h76l10 4 4 4-3 2-9-2v-2l-3-1v-2h-66l-2 1v4l4 4 4 5-1 2-9-9-5-7z" fill="#00082C"/>
<path transform="translate(320,651)" d="m0 0h8l6 3 2 3v9l-9 3h-6l-4-2-2-3v-8z" fill="#FE6407"/>
<path transform="translate(365,498)" d="m0 0h6l6 5 1 7-3 5-4 3h-7l-6-6v-8l5-5z" fill="#00093B"/>
<path transform="translate(763,498)" d="m0 0 9 1 4 5v8l-4 5-8 1-6-4-1-2v-9z" fill="#00093B"/>
<path transform="translate(252,498)" d="m0 0 8 1 4 5v8l-6 6h-7l-5-4-1-2v-8l4-5z" fill="#000A3C"/>
<path transform="translate(693,651)" d="m0 0h8l5 6v6l-2 4-3 2h-8l-7-3-1-3 1-9z" fill="#FE6407"/>
<path transform="translate(651,498)" d="m0 0 7 1 5 5v8l-5 5-2 1h-6l-5-4-1-2v-8l5-5z" fill="#00093B"/>
<path transform="translate(333,717)" d="m0 0h5l9 9 14 9 3 3-2 4-4 1-10-5-10-8-6-8-1-4z" fill="#000A3C"/>
<path transform="translate(685,717)" d="m0 0 5 1-1 5-6 8-12 9-7 3-5-1-1-5 14-9 6-4 5-6z" fill="#00093B"/>
<path transform="translate(486,364)" d="m0 0h7l5 4 1 8-4 5-2 1h-7l-5-4-1-7 3-5z" fill="#00082C"/>
<path transform="translate(623,479)" d="m0 0 4 1-7 8-7 7-10 7-10 6-13 5-7 2h-13l-6-2 4-1v-2l15 1 8-1 6-4 9-4 4-1 1-4 7-3 2-4 3-1 5-5h2l2-4z" fill="#00082D"/>
<path transform="translate(526,364)" d="m0 0h7l5 4 1 2v7l-6 5h-7l-5-5v-8z" fill="#00082C"/>
<path transform="translate(448,374)" d="m0 0h6l5 4 1 7-3 5-3 2h-7l-5-6v-6l4-5z" fill="#00082C"/>
<path transform="translate(565,374)" d="m0 0h7l5 5v8l-6 5h-6l-5-4-1-6 2-5z" fill="#00082C"/>
<path transform="translate(273,609)" d="m0 0h6l12 6v2l-4-2-12-4 1 10 5 10 8 7 11 4 3 1-2-14h3l1 14-1 6-8-2v-2l-7-1-2-3-6-3-4-5v-3h-2l-2-5-3-5 1-4z" fill="#00082D"/>
<path transform="translate(611,405)" d="m0 0h8l5 5-1 8-3 3-8 1-5-4-1-6 3-5z" fill="#00082C"/>
<path transform="translate(400,405)" d="m0 0h9l4 4v8l-4 4-7 1-4-2-2-3v-7z" fill="#00082C"/>
<path transform="translate(457,762)" d="m0 0 3 3 3 11 4 7 8 6 10 3 16 2-2 4-2 2h-8l-1-3-7-1-4 1-5-3-8-10-4-6-4-5v-7z" fill="#00082C"/>
<path transform="translate(412,760)" d="m0 0 9 6 4 2 16 4 1-4 3 14v3l-6-1-10-6-10-9-5-5z" fill="#0EC8CD"/>
<path transform="translate(736,658)" d="m0 0h3l-1 7-8 9-11 6h-2l4-16z" fill="#03F0E5"/>
<path transform="translate(558,469)" d="m0 0h76l-1 4-5 6v-3l1-3-5-2-1 1h-22l-26-1h-17v2l-7 4-5-1v-2l8-4z" fill="#00082C"/>
<path transform="translate(281,656)" d="m0 0 10 4 8 4 4 14-2 1-11-7-7-8z" fill="#04EFE4"/>
<path transform="translate(604,765)" d="m0 0 2 1-9 9-5 2v2l-12 6h-3l3-16 3 3 5-2 10-2z" fill="#0EC8CD"/>
<path transform="translate(400,704)" d="m0 0 3 4 4 6 17 5 13 8 4 4-1 5-3-1-3-5h-2l-1-3-5-1h-2-5l-2-5-9-2-2-2-3-1v-2l-3-1-1-4z" fill="#00082D"/>
<path transform="translate(306,495)" d="m0 0h9l5 3 3 3 1 3v8l-4 6-7 3h-6l-1-2 5 1v-2l5-1 1-5h5v-5l-2-4h-6l-6-3-5-1v2l-3 3 1 12-3-3-1-6 2-7 5-4z" fill="#00082E"/>
<path transform="translate(437,411)" d="m0 0h7l5 4v6l-4 5-5 1-6-3-1-2v-6z" fill="#00082C"/>
<path transform="translate(466,395)" d="m0 0h7l5 5-1 6-4 4h-7l-4-2v-9z" fill="#00082C"/>
<path transform="translate(545,602)" d="m0 0 7 1 2 2v9l-4 4h-8l-3-5 1-7z" fill="#000939"/>
<path transform="translate(575,411)" d="m0 0h7l5 5-1 8-3 2h-8l-4-5v-6z" fill="#00082C"/>
<path transform="translate(548,395)" d="m0 0h7l4 3 1 7-5 5h-6l-5-4v-7z" fill="#00082C"/>
<path transform="translate(473,602)" d="m0 0 5 1 5 4v7l-1 3-2 1h-7l-5-5v-6z" fill="#00093B"/>
<path transform="translate(706,495)" d="m0 0h8l7 4 3 7-1 7-4 5-7 3-8-1-5-4-2-4v-8l3-5 3-3zm-1 2-6 5v8l3 7 10 2 7-3 2-7-1-7-1-3h-3l-1-2-5 1z" fill="#00082C"/>
<path transform="translate(506,522)" d="m0 0h2l1 31v3l-14-4-10-5-2-2-4-2 1-11h2l1 8 8 6 16 5-1-24z" fill="#00082C"/>
<path transform="translate(504,572)" d="m0 0h2v26l-7-6-2-4 1-9z" fill="#E6F8F8"/>
<path transform="translate(506,469)" d="m0 0 2 1v40h-2l-1 2-9 2-4 1-9 3-1 2h-2l-1 2-4 1 1-3 9-6 13-4 8-1z" fill="#00082D"/>
<path transform="translate(510,620)" d="m0 0h5l2 6-2 9-3 3h-2l-5-6-2-1v-8l3 3 2-3z" fill="#000832"/>
<path transform="translate(622,702)" d="m0 0 2 3-2 4h-2l-1 5-7 6h-8l-5 2v2l-6 3-4 4-6 3-1-4 11-8 12-5 10-3z" fill="#00082D"/>
<path transform="translate(518,573)" d="m0 0 4 2 5 8-1 8-7 7h-1z" fill="#EAF8F9"/>
<path transform="translate(280,684)" d="m0 0 7 1 1 2v6l4 2 5 6-1 3h-7l-4-6 1-4-3-2v-2l-5 1v-6z" fill="#00082C"/>
<path transform="translate(252,498)" d="m0 0 8 1 4 5v8l-6 6h-7l-5-4-1-2v-8l4-5zm1 4-6 1v10l5 3h7v-2l2-1v-4h2l-2-7z" fill="#00082C"/>
<path transform="translate(508,695)" d="m0 0h6l3 3 1 5-4 5-4 1-5-4-1-6z" fill="#000A3C"/>
<path transform="translate(525,777)" d="m0 0h2l-2 5-4 8-1 4 18-2 10-3 4-1-1 3-9 3-2-1-1 2-4 1-5 1h-6l-3 1v2h-4l-2-2v-4h2l1-4 4-9z" fill="#00082C"/>
<path transform="translate(343,649)" d="m0 0 5 1v3l-4 1v2l4 1 1 2 3 1v-4l-3-1 3-1 2 1-1 6-1 3h4l-1 4-4 4-3-1 1-9-5-1-1-2-6-3z" fill="#000A3C"/>
<path transform="translate(524,564)" d="m0 0 6 2 7 9 2 7-1 10-4 8-4 4h-2l1-3 3-1 1-4 2-5 1-7-3-7-6-8-3 1-1 3-1-2 2-4z" fill="#00082D"/>
<path transform="translate(763,498)" d="m0 0 9 1 4 5v8l-4 5-8 1 1-2h2l5-5 2-6-6-2h-7l-2 3v7l4 2h-4l-2-3v-9z" fill="#00082D"/>
<path transform="translate(634,696)" d="m0 0 6 1 6 3-1 3-15 8h-2l1-5z" fill="#01F9EA"/>
<path transform="translate(527,366)" d="m0 0h5l3 3v3h-3v2h3l-1 5-7 1-4-4 1-7z" fill="#000A3C"/>
<path transform="translate(517,521)" d="m0 0h1v31l14-5 3 1-2 2-17 6-5 3-1-4 5-3v-3l1-1v-24z" fill="#00082C"/>
<path transform="translate(474,523)" d="m0 0 2 3-1 2h-3l-1 8 3 7 3 5 10 6 2 1v2l10 3v1l-8-1-12-6-7-7-3-7v-8l3-7z" fill="#00082D"/>
<path transform="translate(295,735)" d="m0 0 4 1v2h2v2l5 2 9 5 3 3v2l5 1 3 5 4 3 4 4h-3l-15-11-11-9-10-9z" fill="#00082E"/>
<path transform="translate(651,498)" d="m0 0 7 1 5 5v8l-5 5-2 1h-6l-4-3 1-2 4 2 7-1 2-4v-5l-9-4v2l-4 2-2 7h-1v-8l5-5z" fill="#00082D"/>
<path transform="translate(384,696)" d="m0 0h4l4 9 2 5-6-1-10-6-2-1v-3z" fill="#04EDE3"/>
<path transform="translate(488,367)" d="m0 0h4l4 5-2 6-2 2h-5l-4-5 1-6z" fill="#000939"/>
<path transform="translate(337,737)" d="m0 0 6 4 1 5-3 2-1 3 6 1-2 1-1 2-10 1-1-4 5-3-1-6v-5z" fill="#00082C"/>
<path transform="translate(365,498)" d="m0 0h6l6 5 1 7-3 5-4 3h-7l-1-2 5-1 6-1 2-6-3-5-2-1h-6l-4 4v9l-3-3v-8l5-5z" fill="#00082C"/>
<path transform="translate(486,428)" d="m0 0 1 4v14l4 8v2l5 2v3h4l6 2 1 4-6-1-9-6-6-8-2-6v-12z" fill="#00082D"/>
<path transform="translate(666,656)" d="m0 0h4l1 3 6 1 1 2h3l1 4-4 4h-2v-3h-3l-1 3h-2l-2-9-2-2z" fill="#000A3C"/>
<path transform="translate(439,571)" d="m0 0 5 4 7 8 11 9 2 1-1 4-1-2h-6l-2-5-2-1v-2l-4-2-5-4-6-7v-2z" fill="#00082D"/>
<path transform="translate(559,759)" d="m0 0 5 1-3 2-14 3-12 6-7 5 1-5 3-1-1-2 6-3h3l-1-2 8-1 7-2z" fill="#00082C"/>
<path transform="translate(536,724)" d="m0 0 3 1-9 8-6 10-5 16h-2l-1-5 3-9 3-6 1-3 4-1 2-6h2z" fill="#00082C"/>
<path transform="translate(613,407)" d="m0 0h5l2 7v2h-2l-1 4-5-1-3-3 3-8z" fill="#000A3C"/>
<path transform="translate(519,633)" d="m0 0 3 1-3 4-1 34h-2l-1-9v-17l1-8z" fill="#00082D"/>
<path transform="translate(292,289)" d="m0 0 3 1-2 5h-3l-3 5h-2l-2 4-3 2-2 4-4 2v-4l16-17z" fill="#00082E"/>
<path transform="translate(402,694)" d="m0 0 11 1 13 4 2 4 4 2 3 4 2-1 2 5 1 3-1 3-7-10-9-7-9-4-11-2z" fill="#00082C"/>
<path transform="translate(468,398)" d="m0 0h6l1 5-1 4-2 2h-6l-1-6z" fill="#000A3C"/>
<path transform="translate(406,409)" d="m0 0h4l1 4-2 5-7 1v-2l-4-1 1-5h6z" fill="#000A3C"/>
<path transform="translate(271,312)" d="m0 0 1 3h-2l-2 5-5 5 1 4-6 3-4 8-2 1-2 3h-2l2-5 14-19z" fill="#00082C"/>
<path transform="translate(440,413)" d="m0 0 7 3 1 3-4 4-5 2-3-3 1-5h2z" fill="#000A3C"/>
<path transform="translate(473,602)" d="m0 0 5 1 5 4v7l-2 2-1-1-1 2-5-1 2-4h3v-2l-4-1 1-2-3-3z" fill="#00082C"/>
<path transform="translate(449,509)" d="m0 0 7 2 8 1v-2l8 1-2 2-8 2h-11l-8-2 4-1z" fill="#00082C"/>
<path transform="translate(555,740)" d="m0 0 2 2-4 6-9 2-3 3-6 3-3-1v-3l16-6 5-3z" fill="#00082D"/>
<path transform="translate(519,623)" d="m0 0 3 2v2h2l-1 5-2 2-3 1-1 3-4-2 1-2 2-6 1-4z" fill="#00093A"/>
<path transform="translate(479,477)" d="m0 0 4 4 3 9-1 8-5 8-2-2h2l3-11-1-5-2-1z" fill="#00082C"/>
<path transform="translate(563,762)" d="m0 0 3 1-1 2 1 8-2 3-3 3-2 5-4 4-1 2-2-3 5-6 4-10z" fill="#00082C"/>
<path transform="translate(714,697)" d="m0 0h3l-2 4-5 5-7 6-1-2h2l2-4 3-4-8 1 4-3z" fill="#0EC8CD"/>
<path transform="translate(747,315)" d="m0 0 5 2 4 3-1 3 2 1-1 2-6 2-3-9h2v-2h-2z" fill="#00093B"/>
<path transform="translate(469,760)" d="m0 0 11 1 3 3-1 1 5 2 5 5v3l-10-7-9-4-9-2v-1z" fill="#00082C"/>
<path transform="translate(560,710)" d="m0 0 5 2v7l-2 7h-1l1-12-15 6-3-1 3-3 10-3z" fill="#00082D"/>
<path transform="translate(518,569)" d="m0 0 2 1-1 2 4 2-1 2-4-3v26l-3-1-2-5 4-1-1-4v-17z" fill="#00082C"/>
<path transform="translate(446,379)" d="m0 0 4 2 1 4h4v4l-5 1-3-1-2-3v-6z" fill="#000A3C"/>
<path transform="translate(321,726)" d="m0 0 5 1 2 5-1 4-6 1-1-1v-9z" fill="#00082C"/>
<path transform="translate(407,491)" d="m0 0h3v2h2v2l5 2 9 6 12 6 1 2-5-1-13-7-12-9z" fill="#00082D"/>
<path transform="translate(581,712)" d="m0 0h5l-2 5-5 12h-2v-4h2l1-4-3-1 1-4 4-1z" fill="#00082C"/>
<path transform="translate(622,609)" d="m0 0 5 1 1 1v5l-4 2-5-4 1-4z" fill="#000937"/>
<path transform="translate(465,706)" d="m0 0h14l3 5h-6v-2l-4-1v2h-7z" fill="#00082C"/>
<path transform="translate(611,599)" d="m0 0 5 1 1 5-2 3-4-1-3-5z" fill="#000A3C"/>
<path transform="translate(421,224)" d="m0 0h7l-1 4-6 3-4 1v-6z" fill="#00082C"/>
<path transform="translate(579,413)" d="m0 0 4 1 2 4-1 4-4-1v-3l-6 2-1-3z" fill="#000A3C"/>
<path transform="translate(406,619)" d="m0 0 5 1 1 1v5l-1 1-7-1v-5z" fill="#000934"/>
<path transform="translate(406,599)" d="m0 0 5 1 1 1v5l-7 1-1-1v-5z" fill="#000939"/>
<path transform="translate(464,595)" d="m0 0 5 5 2 4-2 3-1 6h-1v-7l1-3-5-1-3 5-4-1h3l2-5z" fill="#0DCBCF"/>
<path transform="translate(257,656)" d="m0 0h5l1 6h-3v2l-6 2v-3z" fill="#00082C"/>
<path transform="translate(310,273)" d="m0 0 2 2-2 4-4 1-4 4h-3l1 3-1 1h-5l4-5 8-7z" fill="#00082C"/>
<path transform="translate(592,221)" d="m0 0 5 1-1 4h-15v-2z" fill="#00082C"/>
<path transform="translate(481,722)" d="m0 0h5l5 6 6 6-1 4-9-10-6-5z" fill="#00082D"/>
<path transform="translate(396,609)" d="m0 0 4 1 1 5-3 3-4-2-1-3z" fill="#000A3C"/>
<path transform="translate(600,609)" d="m0 0 5 1 1 4-2 3-6-1v-5z" fill="#000A3C"/>
<path transform="translate(272,672)" d="m0 0h3l1 2v6l-1 2-5-1v-4z" fill="#00082C"/>
<path transform="translate(611,619)" d="m0 0 4 1 2 4-4 4-4-3 1-5z" fill="#000A3C"/>
<path transform="translate(418,609)" d="m0 0 4 2 1 5-5 1-3-2 1-5z" fill="#000A3C"/>
<path transform="translate(628,641)" d="m0 0 3 1 1 2v7l-2 4-3-1 1-5-1-6z" fill="#00082C"/>
<path transform="translate(495,565)" d="m0 0 4 2-3 3h-2v2l-2 1-2 3h-2l-1 5-1-4 5-8z" fill="#00082C"/>
<path transform="translate(518,520)" d="m0 0 9 1 5 1v2h5l3 2 1 5-10-6-13-4z" fill="#00082E"/>
<path transform="translate(567,382)" d="m0 0 6 3-1 4-6 1-2-3 1-4z" fill="#000A3C"/>
<path transform="translate(498,736)" d="m0 0 2 1 1 4 2 1v3l2 7v5h-2l-4-13-2-6z" fill="#00082D"/>
<path transform="translate(566,654)" d="m0 0h5v2h2l-1 4-5 1-2-2z" fill="#000831"/>
<path transform="translate(450,654)" d="m0 0 6 1 1 3-2 3h-5l-1-1v-5z" fill="#000A3C"/>
<path transform="translate(547,549)" d="m0 0 2 1-7 6-8 4-6 2h-5l2-2 9-3 10-5z" fill="#00082C"/>
<path transform="translate(432,660)" d="m0 0 9 1v2l4-1-2 4-1-1-10-1-1-3z" fill="#00082C"/>
<path transform="translate(601,696)" d="m0 0h5v2l-11 6-4 2v-4h3l5-5z" fill="#00082D"/>
<path transform="translate(736,658)" d="m0 0h3l-1 7-6 7v-3l4-6v-2l-10 2 4-3z" fill="#0EC8CD"/>
<path transform="translate(550,397)" d="m0 0 4 1 1 4-4 4-3-3v-4h2z" fill="#000A3C"/>
<path transform="translate(384,696)" d="m0 0h4l2 5-1 3-2-6-7 1 2 5-6-2v-3z" fill="#0DC9CD"/>
<path transform="translate(661,658)" d="m0 0 3 2 2 9h2v2h-4l-2-5-2-4z" fill="#000A3C"/>
<path transform="translate(437,638)" d="m0 0 5 1 1 4-3 2-4-1v-5z" fill="#000938"/>
<path transform="translate(713,278)" d="m0 0 4 1 3 4v2l-8-1-1-5z" fill="#000A3C"/>
<path transform="translate(580,638)" d="m0 0 5 1 1 4-2 2-4-1-1-5z" fill="#000936"/>
<path transform="translate(214,411)" d="m0 0 1 3-2 9-4 10-2-1 5-17z" fill="#00082D"/>
<path transform="translate(326,260)" d="m0 0m-1 1m-1 1m-1 1m-2 1 3 1v2h-2v2l-4 1-5 3-2-1z" fill="#00082F"/>
<path transform="translate(335,765)" d="m0 0 1 2 10 4 2 1 4 3v2l-6-2-12-8z" fill="#00082C"/>
<path transform="translate(420,685)" d="m0 0 5 1-4 4-4 1-3-1v-2h2v-2z" fill="#00082C"/>
<path transform="translate(557,596)" d="m0 0 1 3h2l5 7-4 1-2-3v-3l-5 2 2-4z" fill="#0DC9CD"/>
<path transform="translate(581,572)" d="m0 0 2 1-1 3-6 5-5 6-3 1 2-4 7-7z" fill="#00082D"/>
<path transform="translate(245,347)" d="m0 0 2 3-5 6-4 9-2-1 2-6z" fill="#00082D"/>
<path transform="translate(340,663)" d="m0 0h5v7l-3 1-4-6z" fill="#000A3C"/>
<path transform="translate(510,620)" d="m0 0h5l1 4-2 3-4-1-1-4z" fill="#B5EDEE"/>
<path transform="translate(434,727)" d="m0 0 4 1 3 3-1 5-3-1-3-5z" fill="#00082C"/>
<path transform="translate(542,532)" d="m0 0 2 1v9l-2 2-4 3-3-1 5-4z" fill="#00082C"/>
<path transform="translate(666,648)" d="m0 0 4 1 4 5v2h-4l-1-3-4-1z" fill="#000A3C"/>
<path transform="translate(235,364)" d="m0 0 1 4-4 7-2 4h-2l1-4z" fill="#00082D"/>
<path transform="translate(638,704)" d="m0 0 3 1-11 6h-2l1-5 2-1v2z" fill="#0DC9CE"/>
<path transform="translate(346,610)" d="m0 0 6 1-1 4-6-1-1-3z" fill="#00082C"/>
<path transform="translate(293,307)" d="m0 0 4 1v4h-6v-4z" fill="#00082C"/>
<path transform="translate(588,228)" d="m0 0h4v4h-10v-2z" fill="#00082C"/>
<path transform="translate(507,656)" d="m0 0 3 1-2 14-2-2z" fill="#00082C"/>
<path transform="translate(636,231)" d="m0 0 4 1 1 6-1-2h-6v-4z" fill="#000A3C"/>
<path transform="translate(634,696)" d="m0 0 6 1 6 3-1 3-4 1 1-4-7-2-2 2z" fill="#0EC8CD"/>
<path transform="translate(266,667)" d="m0 0 5 1 1 4h-6l-1-4z" fill="#00082C"/>
<path transform="translate(281,656)" d="m0 0 10 4 2 2-5-1h-3l-2 3z" fill="#0EC8CD"/>
<path transform="translate(304,697)" d="m0 0 11 3-4 1 1 3-4-2-4-4z" fill="#0EC8CD"/>
<path transform="translate(485,582)" d="m0 0 2 4 3 9-2 2-3-8z" fill="#00082D"/>
<path transform="translate(471,681)" d="m0 0 5 1v2h-2l-1 2-4 1 1-3-2-1z" fill="#000830"/>
<path transform="translate(749,648)" d="m0 0 2 4 4 1 2-4v3l-2 3-5-1-3-2z" fill="#0EC8CD"/>
</svg>
